HIERARCHY
ROOT Hips
{
    OFFSET 0.000000 0.000000 0.000000
    CHANNELS 6 Xposition Yposition Zposition Zrotation Xrotation Yrotation
        JOINT Chest
        {
            OFFSET -0.000000 31.966684 -0.000000
            CHANNELS 3 Zrotation Xrotation Yrotation
            JOINT Neck
            {
                OFFSET -0.000000 23.973995 0.000000
                CHANNELS 3 Zrotation Xrotation Yrotation
                JOINT Head
                {
                    OFFSET -0.000000 10.633333 0.000000
                    CHANNELS 3 Zrotation Xrotation Yrotation
                    End Site
                    {
                        OFFSET -0.000000 16.433334 0.000000
                    }
                }
            }
            JOINT LeftCollar
            {
                OFFSET -0.000000 23.973995 0.000000
                CHANNELS 3 Zrotation Xrotation Yrotation
                JOINT LeftShoulder
                {
                    OFFSET 19.333332 -0.000000 0.000000
                    CHANNELS 3 Zrotation Xrotation Yrotation
                    JOINT LeftElbow
                    {
                        OFFSET 20.067463 0.000000 0.000000
                        CHANNELS 3 Zrotation Xrotation Yrotation
                        JOINT LeftWrist
                        {
                            OFFSET 23.490957 0.000000 0.000000
                            CHANNELS 3 Zrotation Xrotation Yrotation
                            End Site
                            {
                                OFFSET 0.000000 -14.500000 0.000000
                            }
                        }
                    }
                }
            }
            JOINT RightCollar
            {
                OFFSET -0.000000 23.973995 0.000000
                CHANNELS 3 Zrotation Xrotation Yrotation
                JOINT RightShoulder
                {
                    OFFSET -19.333332 0.000000 0.000000
                    CHANNELS 3 Zrotation Xrotation Yrotation
                    JOINT RightElbow
                    {
                        OFFSET -20.067463 0.000000 0.000000
                        CHANNELS 3 Zrotation Xrotation Yrotation
                        JOINT RightWrist
                        {
                            OFFSET -23.490957 0.000000 0.000000
                            CHANNELS 3 Zrotation Xrotation Yrotation
                            End Site
                            {
                                OFFSET -0.000000 -14.500000 0.000000
                            }
                        }
                    }
                }
            }
        }
    JOINT LeftHip
    {
        OFFSET 11.599999 0.000000 0.000000
        CHANNELS 3 Zrotation Xrotation Yrotation
        JOINT LeftKnee
        {
            OFFSET -0.000000 -35.131119 0.000000
            CHANNELS 3 Zrotation Xrotation Yrotation
            JOINT LeftAnkle
            {
                OFFSET -0.000000 -37.839104 0.000000
                CHANNELS 3 Zrotation Xrotation Yrotation
                End Site
                {
                    OFFSET -0.000000 -4.833333 16.433334
                }
            }
        }
    }
    JOINT RightHip
    {
        OFFSET -11.599999 0.000000 0.000000
        CHANNELS 3 Zrotation Xrotation Yrotation
        JOINT RightKnee
        {
            OFFSET -0.000000 -35.131119 0.000000
            CHANNELS 3 Zrotation Xrotation Yrotation
            JOINT RightAnkle
            {
                OFFSET -0.000000 -37.839104 0.000000
                CHANNELS 3 Zrotation Xrotation Yrotation
                End Site
                {
                    OFFSET -0.000000 -4.833333 16.433334
                }
            }
        }
    }
}
MOTION
Frames:    7
Frame Time:    0.010000
-88.633415    73.241905    -54.174362    3.262721    7.635992    68.641396    -6.377234    11.768698    36.889648    -12.553429    7.973525    -24.778067    13.438195    18.310633    -27.847233    -6.211783    0.307440    -6.399093    -52.869884    10.640943    -14.447794    11.979578    -11.921033    -88.747612    137.555588    19.954945    34.104992    4.981879    0.632918    15.611969    11.661990    39.902149    90.664345    -5.875958    -1.526573    26.753212    -150.543213    0.514925    6.952988    12.568382    -26.512033    -1.167539    -44.557354    51.246601    18.129459    5.072615    -24.462015    40.484207    -42.049149    -32.234127    -33.071251    97.474754    74.234741    -116.063400    -39.562504    -1.557094    15.392291    
-88.677742    72.643936    -53.819092    3.464699    7.614184    69.219452    -6.015760    11.970572    37.392452    -12.779004    8.277160    -25.153891    13.752556    19.022161    -28.412262    -5.964272    0.327238    -6.961568    -53.144440    8.855781    -13.961175    12.350606    -12.616160    -89.642235    136.840347    19.220835    35.319469    4.786072    0.642641    15.920304    10.002893    38.366127    92.601784    -6.311056    -1.596702    26.222946    -150.690170    0.797180    7.213529    13.097771    -27.107267    -1.491176    -46.851048    51.916912    20.374277    4.940575    -24.911436    40.296852    -44.585629    -32.972916    -33.048347    96.921555    74.075684    -115.230507    -37.081875    -0.964898    14.277158    
-88.723183    72.039810    -53.429340    3.675339    7.562360    69.796364    -5.608679    12.152225    37.853592    -13.021803    8.537546    -25.495535    14.057482    19.713432    -28.940016    -5.826323    0.354361    -7.469155    -53.408188    7.333825    -13.391033    12.857047    -13.425997    -90.403175    136.374847    18.717459    36.877441    4.654608    0.640432    16.217745    8.396170    36.924580    94.403046    -6.784099    -1.675578    25.584227    -150.692581    0.888951    7.547271    13.638499    -27.703632    -1.708016    -49.020489    52.720715    22.469675    4.682800    -25.462170    40.097057    -46.920486    -33.559067    -32.799271    95.045158    73.936432    -113.031158    -34.568939    -0.401242    12.991936    
-88.772354    71.431976    -53.006790    3.888289    7.489134    70.369064    -5.172571    12.315041    38.276833    -13.257643    8.747198    -25.802345    14.346340    20.387341    -29.426523    -5.792685    0.394456    -7.905266    -53.672337    6.085397    -12.754478    13.480949    -14.317963    -91.018684    136.170197    18.446840    38.770447    4.564607    0.655246    16.503014    6.928621    35.577347    96.041466    -7.160552    -1.702845    24.839558    -150.615967    0.791548    7.963675    14.170897    -28.295954    -1.834756    -51.023811    53.643814    24.374695    4.310726    -26.130289    39.909363    -49.044052    -34.009426    -32.400909    92.070129    73.802620    -109.775291    -32.155148    0.140819    11.586883    
-88.828857    70.822510    -52.554852    4.094453    7.406759    70.930466    -4.729361    12.464130    38.668949    -13.459949    8.898579    -26.076036    14.610626    21.042387    -29.867634    -5.851944    0.431125    -8.255474    -53.960163    5.116112    -12.054245    14.207045    -15.273675    -91.489853    136.187500    18.397007    40.963734    4.499493    0.681956    16.774601    5.651807    34.353481    97.499725    -7.466046    -1.707651    24.032194    -150.403656    0.453304    8.503411    14.670829    -28.887259    -1.907478    -52.842861    54.662270    26.090342    3.839890    -26.921795    39.748245    -50.955166    -34.348942    -31.943205    88.204010    73.665054    -105.761040    -29.921377    0.687168    10.122858    
-88.896698    70.213264    -52.078110    4.285224    7.328775    71.469124    -4.304486    12.607605    39.041206    -13.606822    8.985888    -26.320074    14.844674    21.673750    -30.261797    -5.993053    0.417288    -8.512467    -54.304180    4.433961    -11.263836    15.020224    -16.278889    -91.824051    136.371933    18.570879    43.409199    4.465679    0.635871    17.029343    4.587663    33.361359    98.768181    -7.830034    -1.731928    23.210079    -149.915466    -0.174805    9.196705    15.110944    -29.486134    -1.975302    -54.479683    55.747562    27.650282    3.292727    -27.829161    39.619598    -52.657715    -34.607708    -31.518951    83.661430    73.520012    -101.304871    -27.860474    1.251699    8.667179    
-88.980034    69.605927    -51.581635    4.453366    7.268514    71.969391    -3.925626    12.754904    39.408852    -13.683372    9.006051    -26.538673    15.046817    22.273281    -30.608925    -6.177355    0.473436    -8.676744    -54.761566    3.918959    -10.472603    15.853354    -17.181925    -91.936287    136.682907    18.989202    46.036236    4.403649    0.658138    17.266157    3.832999    32.484581    99.841255    -7.865935    -1.646364    22.358952    -149.275604    -1.087353    10.037948    15.462291    -30.104662    -2.094941    -55.954067    56.870186    29.111975    2.697783    -28.832996    39.522690    -54.159161    -34.820461    -31.217754    78.716011    73.373833    -96.782509    -25.840034    1.806285    7.291520    
